# xmcd
#
# Track frame offsets:
#	150
#	33958
#	49255
#	57600
#	73804
#	89101
#	110962
#	133537
#	149062
#	179448
#	193087
#	241237
#	253912
#	271043
#
# Disc length: 3972 seconds
#
# Revision: 1
# Processed by: cddbd v1.5.1PL0 Copyright (c) Steve Scherf et al.
# Submitted via: audiograbber 1.83.01
#
DISCID=e60f820e
DTITLE=Hayseed Dixie - Live 06.06.2004 CD 2
DYEAR=2004
DGENRE=Country
TTITLE0=banter
TTITLE1=Feel Like Making Lunch
TTITLE2=?
TTITLE3=I'm Keeping Your Poop
TTITLE4=Wish I Was You
TTITLE5=Rocking in the Free World
TTITLE6=Paradise
TTITLE7=TNT
TTITLE8=Reno's 2nd Ride
TTITLE9=Corn Liquor
TTITLE10=Highway to Hell
TTITLE11=encore break
TTITLE12=Centerfold
TTITLE13=Will the Circle Be Unbroken
EXTD=
EXTT0=
EXTT1=
EXTT2=
EXTT3=
EXTT4=
EXTT5=
EXTT6=
EXTT7=
EXTT8=
EXTT9=
EXTT10=
EXTT11=
EXTT12=
EXTT13=
PLAYORDER=
